<?xml version="1.0" encoding="UTF-8" standalone="no"?>
<!DOCTYPE svg PUBLIC "-//W3C//DTD SVG 1.1//EN" "http://www.w3.org/Graphics/SVG/1.1/DTD/svg11.dtd">
<svg width="100%" height="100%" viewBox="0 0 384 384" version="1.1" xmlns="http://www.w3.org/2000/svg" xmlns:xlink="http://www.w3.org/1999/xlink" xml:space="preserve" xmlns:serif="http://www.serif.com/" style="fill-rule:evenodd;clip-rule:evenodd;stroke-linejoin:round;stroke-miterlimit:2;">
    <g transform="matrix(0.431312,0,0,0.419614,211.648,14.5353)">
        <path d="M77.1,384C74.05,382.99 70.86,382.28 67.97,380.93C55.35,375.04 48.92,364.84 47.15,351.14C40.59,300.39 33.84,249.67 27.19,198.93C23.52,170.96 19.78,143 16.33,115.01C13.86,94.94 27.53,78.25 47.64,75.72C76.31,72.11 104.95,68.2 133.6,64.41C133.83,64.38 134.05,64.23 134.63,63.97C135.88,54.55 137.33,44.95 138.41,35.3C140.62,15.66 148.93,5.7 167.85,0.45C168.07,0.39 168.23,0.15 168.42,-0L178.9,-0C185.27,0.98 191.63,2.08 198.01,2.93C229.76,7.16 261.52,11.32 293.27,15.51C308.71,17.55 324.19,19.37 339.59,21.73C358.04,24.55 370.84,41.58 368.48,60.12C363.88,96.29 359.02,132.43 354.29,168.58C349.94,201.76 345.62,234.95 341.26,268.13C339.88,278.65 338.64,289.2 336.95,299.68C333.75,319.57 316.42,331.99 296.49,329.01C290.23,328.07 283.94,327.31 277.46,326.44C277.16,329.33 277.08,331.95 276.58,334.48C273.45,350.16 261.66,360.68 244.94,362.89C207.25,367.86 169.57,372.87 131.88,377.83C117.79,379.69 103.7,381.46 89.61,383.31C88.91,383.4 88.25,383.77 87.57,384.01L77.09,384.01L77.1,384ZM208.95,65.25C201.22,66.29 191.59,67.62 181.96,68.89C137.477,74.72 92.99,80.52 48.51,86.37C34.32,88.24 25.59,99.32 26.85,113.71C27.06,116.07 27.39,118.42 27.7,120.78C31.32,148.39 34.96,175.99 38.58,203.6C42.19,231.08 45.78,258.57 49.4,286.05C52.34,308.33 55.12,330.63 58.32,352.88C60.25,366.29 72.24,374.82 85.63,373.05C113.3,369.4 140.99,365.82 168.66,362.17C194.23,358.8 219.82,355.51 245.36,351.9C259.41,349.91 268.04,338.57 266.32,324.44C263.71,303 260.74,281.6 257.92,260.19C254.04,230.73 250.15,201.27 246.27,171.81C242.49,143.09 238.82,114.36 234.92,85.65C233.3,73.77 222.84,65.12 208.93,65.26L208.95,65.25ZM145.59,62.86C165.75,60.19 185.17,57.8 204.53,55C225.21,52.02 242.78,64.72 245.62,85.37C249.11,110.73 252.39,136.12 255.73,161.49C259.34,188.97 262.92,216.46 266.51,243.95C269.52,266.98 272.51,290.01 275.66,313.02C275.8,314.04 277.28,315.49 278.32,315.66C285.33,316.81 292.37,317.79 299.43,318.6C312.94,320.15 324.34,311.48 326.49,297.97C327.74,290.08 328.66,282.14 329.7,274.21C333.34,246.6 336.96,218.99 340.59,191.39C344.22,163.78 347.86,136.18 351.47,108.56C353.67,91.72 356.12,74.91 357.87,58.02C359.22,45.03 350.49,34.06 337.61,32.18C318.5,29.39 299.32,27.04 280.17,24.51C245.57,19.94 210.98,15.33 176.37,10.85C164.61,9.33 153.55,16.79 150.45,28.27C149.45,31.98 149.09,35.88 148.57,39.71C147.55,47.22 146.63,54.75 145.59,62.85L145.59,62.86Z" style="fill-rule:nonzero;stroke:black;stroke-width:35.56px;"/>
    </g>
    <g id="futbol-light.svg" transform="matrix(0.573278,0,0,0.573278,143.866,236.72)">
        <g transform="matrix(1,0,0,1,-248,-256)">
            <clipPath id="_clip1">
                <rect x="0" y="0" width="496" height="512"/>
            </clipPath>
            <g clip-path="url(#_clip1)">
                <path d="M483.7,179.4C449.7,74.6 352.5,8 248.1,8C81.2,8 -40,171.4 12.3,332.6C46.3,437.4 143.7,504 248,504C414.9,504 536,340.6 483.7,179.4ZM440.7,353.1L346.4,364.7L328.6,339.8L362.3,235.7L391.2,226.7L460.8,291.7C457.2,312.8 450.5,333.5 440.7,353.1ZM35.6,291.5L105,226.6L133.9,235.6L167.8,339.3L149.7,364.5L55.5,352.9C42.5,326.9 38.3,307.7 35.6,291.5ZM232.1,110.8L232.1,143.7L146.2,206L114.7,196.2L96.7,102.3C112,87.2 129.5,74.5 148.7,64.5L232.1,110.8ZM381.5,196.2L350,206L264.1,143.7L264.1,110.8L347.7,64.4C366.8,74.4 384.4,87.1 399.7,102.3L381.5,196.2ZM166.1,231.2L248.1,171.7L330.2,231.3L299.1,327.3L197.5,327.3L166.1,231.2ZM463.8,250.7L412.7,203L426,134.7C460.5,185.5 463.3,231.9 463.8,250.7ZM309.2,49.2L248.1,83.1L187.1,49.3C258.6,28.1 309.1,49.2 309.2,49.2ZM70.3,134.1L83.5,203L32.4,250.5C33.2,218.7 41.1,187.1 56,157.9C60.2,149.6 65.1,141.7 70.3,134.1ZM77.8,388.1L146.5,396.5L175.7,459.2C136.9,445.4 103,420.7 77.8,388.1ZM215.7,469.4L175.6,383.4L193,359.2L303.2,359.2L320.5,383.4L280.4,469.4C257.7,472.9 238,472.8 215.7,469.4ZM320.5,459.2L349.7,396.5L418.7,388C393.7,420.6 359.9,445.1 320.5,459.2Z" style="fill-rule:nonzero;"/>
            </g>
        </g>
    </g>
</svg>
