<?xml version="1.0" encoding="utf-8"?>
<!-- Generator: Adobe Illustrator 25.2.3, SVG Export Plug-In . SVG Version: 6.00 Build 0)  -->
<svg version="1.1" id="Ebene_1" xmlns="http://www.w3.org/2000/svg" xmlns:xlink="http://www.w3.org/1999/xlink" x="0px" y="0px"
	 viewBox="0 0 142.244 38.011" style="enable-background:new 0 0 142.244 38.011;" xml:space="preserve">
<style type="text/css">
	.st0{fill:#FFFFFF;}
	.st1{fill:#CC3434;}
</style>
<path class="st0" d="M47.879,8.967h10.676c2.617,0,4.461,0.654,5.68,1.873c0.89,0.888,1.374,2.104,1.338,3.361v0.059
	c0.042,2.077-1.253,3.947-3.212,4.639c2.528,0.833,4.134,2.26,4.134,5.085v0.06c0,3.569-2.915,5.74-7.881,5.74H47.879L47.879,8.967z
	 M57.128,17.264c1.755,0,2.736-0.595,2.736-1.814v-0.059c0-1.13-0.892-1.784-2.617-1.784H53.5v3.658H57.128z M57.961,25.145
	c1.755,0,2.766-0.684,2.766-1.903v-0.059c0-1.13-0.892-1.873-2.825-1.873H53.5v3.836H57.961z"/>
<path class="st0" d="M68.489,25.591l10.439-11.747H68.846V8.967h18.052v4.193L76.46,24.907h10.438v4.877H68.489V25.591z"/>
<path class="st0" d="M88.505,8.967h6.096l3.628,12.044l4.015-12.104h4.967l4.015,12.104l3.628-12.044h5.978l-6.959,20.966h-5.026
	l-4.193-11.985l-4.163,11.985h-5.026L88.505,8.967z"/>
<path class="st0" d="M122.854,20.655V8.967h5.859v11.569c0,3.003,1.517,4.431,3.836,4.431c2.32,0,3.836-1.368,3.836-4.282V8.967
	h5.859v11.539c0,6.721-3.836,9.665-9.754,9.665C126.572,30.171,122.854,27.168,122.854,20.655z"/>
<path id="path875" class="st0" d="M16.532,38.01c0.899,0,1.795-0.084,2.679-0.25c0.117-0.022,0.234-0.045,0.35-0.07
	c0.04-0.008,0.079-0.018,0.118-0.027c0.072-0.016,0.145-0.032,0.217-0.049c0.062-0.015,0.124-0.031,0.186-0.046
	c0.049-0.012,0.099-0.025,0.148-0.038c0.072-0.019,0.144-0.039,0.216-0.059l0.111-0.031c0.078-0.023,0.156-0.046,0.234-0.07
	l0.09-0.028c0.082-0.026,0.164-0.052,0.246-0.079l0.074-0.025c0.086-0.029,0.171-0.059,0.256-0.089l0.055-0.02
	c0.092-0.033,0.183-0.067,0.275-0.102l0.007-0.002l0.016-0.007l0.001,0c0.398-0.154,0.789-0.325,1.173-0.512
	c0.093-0.045,0.185-0.092,0.277-0.139l0.001-0.001l0.014-0.007l0.005-0.003c0.086-0.045,0.173-0.09,0.258-0.136l0.006-0.003
	l0.024-0.013l0.002-0.001c0.083-0.045,0.165-0.091,0.247-0.137l0.002-0.001l0.05-0.028l0.007-0.004
	c0.075-0.043,0.15-0.087,0.225-0.131l0.001-0.001l0.059-0.035c0.079-0.047,0.157-0.095,0.235-0.143l0.029-0.019l0.004-0.002
	c0.36-0.226,0.712-0.466,1.056-0.721c0.079-0.059,0.158-0.119,0.237-0.179l0.008-0.006l0.023-0.018l0.002-0.002
	c0.072-0.056,0.145-0.113,0.216-0.171l0.007-0.005l0.045-0.036l0.005-0.004c0.065-0.053,0.13-0.106,0.195-0.16l0.008-0.006
	l0.063-0.053l0.006-0.005c0.065-0.055,0.129-0.11,0.193-0.166l0.047-0.041c0.072-0.063,0.144-0.127,0.215-0.191l0.001-0.001
	l0.01-0.009l0.005-0.004c0.309-0.281,0.608-0.573,0.899-0.878l0.042-0.043l0.003-0.003c0.059-0.063,0.118-0.126,0.176-0.19
	l0.004-0.005l0.063-0.069l0.005-0.006c0.051-0.056,0.101-0.112,0.151-0.169c0.028-0.031,0.055-0.062,0.083-0.094
	c0.051-0.059,0.102-0.118,0.153-0.178l0.074-0.088c0.051-0.061,0.102-0.123,0.153-0.184l0.003-0.003l0.06-0.075
	c0.051-0.064,0.103-0.127,0.154-0.192l0.004-0.005c0.023-0.029,0.045-0.058,0.068-0.088l0.013-0.017
	c0.046-0.06,0.093-0.12,0.138-0.18l0.005-0.006c0.133-0.176,0.262-0.354,0.389-0.535l0.008-0.011
	c0.047-0.068,0.094-0.136,0.14-0.204l0.003-0.004c0.02-0.03,0.041-0.06,0.062-0.09l0.004-0.006c0.041-0.062,0.082-0.124,0.123-0.186
	l0.003-0.004c0.025-0.038,0.049-0.075,0.074-0.113c0.036-0.057,0.073-0.114,0.108-0.171l0.002-0.003
	c0.029-0.047,0.059-0.094,0.088-0.141l0.002-0.004c0.037-0.06,0.073-0.119,0.109-0.179c0.023-0.039,0.046-0.077,0.069-0.116
	c0.038-0.064,0.076-0.129,0.114-0.194l0.033-0.057l0.043-0.076l0.004-0.007c0.034-0.06,0.068-0.121,0.102-0.181l0.001-0.001
	c0.025-0.045,0.05-0.091,0.074-0.137l0.007-0.013c0.03-0.055,0.06-0.111,0.09-0.167c0.039-0.073,0.077-0.148,0.114-0.222
	c0.017-0.033,0.034-0.065,0.051-0.098c0.026-0.051,0.051-0.103,0.077-0.155l0.004-0.007c0.028-0.056,0.056-0.112,0.083-0.169
	l0-0.001c0.026-0.054,0.052-0.109,0.078-0.164l0.004-0.008c0.026-0.056,0.053-0.112,0.079-0.169c0.025-0.055,0.05-0.11,0.075-0.165
	l0.001-0.002c0.026-0.059,0.052-0.118,0.078-0.177l0.002-0.005c0.022-0.051,0.044-0.102,0.066-0.153
	c0.023-0.055,0.047-0.11,0.069-0.165l0.013-0.03c0.022-0.054,0.045-0.108,0.067-0.163l0,0c0.026-0.065,0.052-0.131,0.078-0.197
	c0.021-0.054,0.042-0.108,0.063-0.162l0-0.001c0.023-0.061,0.046-0.122,0.068-0.183c0.022-0.06,0.044-0.119,0.066-0.179
	c0.023-0.064,0.045-0.128,0.068-0.192c0.019-0.055,0.039-0.11,0.058-0.165c0.039-0.115,0.077-0.23,0.114-0.346
	c0.017-0.054,0.034-0.109,0.051-0.163c0.022-0.072,0.045-0.143,0.066-0.215c0.014-0.047,0.027-0.094,0.041-0.141l0.003-0.012
	c0.021-0.073,0.043-0.147,0.063-0.22l0.001-0.006c0.013-0.048,0.027-0.097,0.04-0.145l0.004-0.014
	c0.019-0.069,0.037-0.139,0.055-0.208l0.001-0.006c0.013-0.052,0.027-0.104,0.04-0.156c0.019-0.074,0.037-0.148,0.055-0.223
	l0.002-0.008c0.012-0.052,0.025-0.104,0.037-0.156l0.001-0.002c0.018-0.079,0.036-0.159,0.054-0.239l0-0.001
	c0.01-0.046,0.021-0.093,0.03-0.139l0-0.001c0.018-0.083,0.034-0.167,0.051-0.251l0.004-0.017c0.008-0.042,0.017-0.084,0.025-0.126
	l0-0.001c0.021-0.112,0.042-0.224,0.062-0.337l0.008-0.047c0.02-0.116,0.039-0.233,0.057-0.35l0.006-0.038v0
	c0.007-0.047,0.014-0.093,0.021-0.14l0.007-0.046c0.011-0.073,0.021-0.146,0.031-0.219l0-0.002c0.006-0.048,0.012-0.096,0.018-0.144
	c0.01-0.082,0.021-0.164,0.03-0.246c0.007-0.056,0.013-0.112,0.019-0.168c0.009-0.081,0.017-0.163,0.025-0.245
	c0.005-0.05,0.009-0.099,0.014-0.149l0.001-0.006c0.008-0.083,0.014-0.167,0.021-0.251c0.004-0.052,0.008-0.105,0.012-0.157l0-0.005
	c0.006-0.082,0.011-0.164,0.016-0.246l0-0.004c0.003-0.055,0.007-0.11,0.01-0.165c0.004-0.081,0.008-0.162,0.011-0.244
	c0.002-0.055,0.005-0.111,0.007-0.166c0.004-0.135,0.008-0.271,0.01-0.407c0.001-0.11,0.004-0.221,0.004-0.331
	s-0.002-0.221-0.004-0.331c-0.002-0.108-0.006-0.217-0.011-0.324c-0.005-0.108-0.011-0.215-0.018-0.322
	c-0.007-0.107-0.015-0.214-0.024-0.32c-0.019-0.213-0.042-0.424-0.069-0.633c-0.019-0.142-0.04-0.282-0.062-0.422l-0.015-0.093
	c-0.023-0.139-0.048-0.278-0.075-0.416c-0.04-0.204-0.085-0.406-0.134-0.607c-0.049-0.2-0.102-0.399-0.159-0.595
	c-0.057-0.196-0.118-0.39-0.183-0.582c-0.13-0.384-0.274-0.758-0.435-1.124c-0.08-0.182-0.163-0.362-0.251-0.54
	c-0.044-0.089-0.088-0.177-0.133-0.264c-0.017-0.033-0.035-0.066-0.053-0.099c-0.075-0.141-0.151-0.28-0.23-0.417
	c-0.049-0.085-0.098-0.168-0.149-0.252c-0.101-0.166-0.205-0.33-0.313-0.49l0,0c-0.189-0.283-0.389-0.556-0.598-0.819
	c-0.028-0.036-0.056-0.072-0.085-0.107v0c-0.12-0.148-0.243-0.293-0.369-0.434c-0.032-0.036-0.065-0.071-0.098-0.107
	c-0.031-0.034-0.062-0.069-0.093-0.102h0c-0.064-0.069-0.129-0.137-0.195-0.204h0c-0.132-0.134-0.266-0.265-0.403-0.392h0
	c-0.068-0.064-0.138-0.126-0.207-0.188c-0.07-0.062-0.14-0.123-0.211-0.182c-0.213-0.18-0.432-0.351-0.657-0.513h0
	c-0.595-0.431-1.232-0.8-1.903-1.1h0c-0.083-0.037-0.167-0.073-0.252-0.108h0c-0.079-0.033-0.159-0.065-0.239-0.095
	c-0.026-0.01-0.053-0.02-0.08-0.03C25.3,6.771,25.245,6.75,25.19,6.731C25.16,6.72,25.13,6.71,25.1,6.7
	c-0.052-0.018-0.104-0.035-0.156-0.053c-0.033-0.011-0.066-0.021-0.099-0.032c-0.048-0.015-0.095-0.03-0.143-0.044
	c-0.038-0.011-0.076-0.022-0.113-0.033c-0.047-0.013-0.094-0.026-0.141-0.039c-0.035-0.009-0.07-0.019-0.106-0.028
	c-0.049-0.013-0.099-0.025-0.149-0.037c-0.036-0.009-0.071-0.018-0.107-0.026c-0.083-0.019-0.166-0.037-0.249-0.054
	c-0.085-0.017-0.17-0.033-0.256-0.048c-0.032-0.006-0.064-0.01-0.096-0.016c-0.052-0.009-0.104-0.017-0.156-0.025
	c-0.041-0.006-0.083-0.012-0.125-0.017c-0.045-0.006-0.091-0.012-0.136-0.018c-0.039-0.005-0.078-0.009-0.117-0.013
	c-0.052-0.006-0.104-0.011-0.156-0.016c-0.035-0.003-0.07-0.006-0.105-0.009c-0.056-0.005-0.112-0.008-0.168-0.012
	c-0.033-0.002-0.065-0.004-0.098-0.006c-0.066-0.004-0.131-0.006-0.197-0.008c-0.022-0.001-0.043-0.002-0.065-0.002
	C22.071,6.162,21.98,6.16,21.889,6.16c-0.906,0-1.807,0.125-2.679,0.372c4.877,1.38,8.494,6.44,8.494,12.472
	s-3.617,11.093-8.494,12.472c-0.871,0.247-1.773,0.372-2.679,0.372c-0.095,0-0.189-0.001-0.284-0.004h0
	c-0.094-0.003-0.188-0.007-0.282-0.012h0c-0.187-0.011-0.374-0.027-0.558-0.048c-0.092-0.011-0.184-0.023-0.276-0.036h0
	l-0.038-0.006l-0.016-0.002c-0.14-0.021-0.279-0.045-0.417-0.072c-0.025-0.005-0.051-0.009-0.076-0.014h0
	c-0.09-0.018-0.18-0.038-0.269-0.058h-0.001c-0.077-0.018-0.154-0.037-0.23-0.057c-0.076-0.019-0.151-0.04-0.226-0.061l-0.002-0.001
	c-0.025-0.007-0.049-0.013-0.074-0.02c-0.041-0.012-0.081-0.025-0.122-0.037l-0.078-0.024c-0.021-0.007-0.042-0.012-0.063-0.019
	l-0.001,0l-0.034-0.011l-0.02-0.007c-0.156-0.051-0.31-0.106-0.463-0.164l-0.001,0h0c-0.085-0.033-0.17-0.066-0.254-0.101l-0.001,0
	c-0.111-0.046-0.22-0.094-0.329-0.144c-0.032-0.015-0.064-0.029-0.096-0.044c-0.108-0.051-0.215-0.102-0.322-0.156
	c-0.109-0.056-0.218-0.115-0.325-0.174L11.6,30.534c-0.107-0.061-0.214-0.123-0.319-0.187c-0.078-0.048-0.155-0.097-0.232-0.146
	L11.048,30.2c-0.077-0.05-0.153-0.101-0.229-0.153l-0.001-0.001c-0.076-0.052-0.151-0.104-0.225-0.158l-0.001-0.001
	c-0.149-0.108-0.296-0.22-0.44-0.335l-0.001-0.001c-0.072-0.058-0.143-0.116-0.214-0.176l-0.001-0.001
	c-0.071-0.06-0.142-0.121-0.211-0.182c-0.07-0.062-0.139-0.124-0.207-0.187l-0.001-0.001c-0.068-0.063-0.135-0.127-0.202-0.192
	L9.314,28.81c-0.067-0.065-0.134-0.132-0.199-0.199c-0.052-0.053-0.104-0.107-0.155-0.162l-0.028-0.029l-0.012-0.012l-0.001-0.001
	c-0.019-0.02-0.037-0.041-0.056-0.061l-0.009-0.01c-0.055-0.06-0.109-0.12-0.163-0.181l-0.003-0.004l-0.017-0.02
	c-0.051-0.058-0.101-0.116-0.151-0.175l-0.047-0.057C8.431,27.85,8.39,27.802,8.35,27.752l-0.003-0.004
	c-0.026-0.032-0.052-0.066-0.078-0.098c-0.088-0.111-0.175-0.224-0.26-0.338l0,0c-0.057-0.077-0.113-0.155-0.168-0.234
	c-0.055-0.079-0.11-0.158-0.164-0.238c-0.053-0.079-0.106-0.16-0.157-0.241l-0.001-0.002c-0.052-0.082-0.103-0.164-0.154-0.247
	c-0.05-0.082-0.099-0.165-0.148-0.249l-0.001-0.002c-0.049-0.085-0.097-0.17-0.144-0.256c-0.047-0.086-0.093-0.173-0.139-0.26
	C6.887,25.495,6.843,25.408,6.8,25.32l-0.001-0.003c-0.044-0.089-0.086-0.178-0.128-0.268v0c-0.042-0.09-0.083-0.18-0.123-0.272
	c-0.054-0.122-0.105-0.246-0.155-0.371l-0.036-0.089c-0.049-0.125-0.098-0.25-0.144-0.377c-0.069-0.19-0.133-0.381-0.194-0.575
	c-0.091-0.291-0.174-0.587-0.247-0.887c-0.073-0.3-0.137-0.605-0.191-0.914c-0.036-0.206-0.068-0.413-0.096-0.623
	c-0.014-0.103-0.026-0.207-0.038-0.311l-0.001-0.005l-0.002-0.021c-0.015-0.139-0.028-0.279-0.039-0.419l-0.007-0.094
	c-0.01-0.141-0.019-0.282-0.026-0.425c-0.005-0.108-0.008-0.216-0.011-0.324c-0.002-0.112-0.004-0.225-0.004-0.338
	c0-0.113,0.001-0.226,0.004-0.338l0-0.005c0.002-0.136,0.006-0.272,0.01-0.408c0.001-0.039,0.003-0.078,0.005-0.117
	c0.004-0.097,0.008-0.195,0.013-0.292l0.002-0.049c0.001-0.029,0.004-0.058,0.006-0.087c0.005-0.094,0.012-0.188,0.018-0.281
	l0.004-0.061c0.001-0.021,0.004-0.042,0.005-0.063c0.007-0.09,0.014-0.18,0.022-0.269c0.003-0.03,0.005-0.06,0.008-0.089
	l0.001-0.005l0.004-0.037l0.001-0.013c0.009-0.097,0.02-0.195,0.03-0.291c0.003-0.027,0.005-0.055,0.008-0.082l0.003-0.023
	c0.015-0.133,0.032-0.265,0.049-0.397c0.018-0.133,0.037-0.265,0.057-0.396l0.002-0.018l0.001-0.004
	c0.005-0.035,0.011-0.07,0.017-0.106l0.005-0.028c0.013-0.08,0.026-0.16,0.039-0.24l0.007-0.041c0.005-0.027,0.01-0.054,0.015-0.081
	c0.016-0.092,0.033-0.185,0.051-0.277l0.01-0.054l0.014-0.07c0.017-0.087,0.035-0.175,0.053-0.261
	c0.005-0.026,0.01-0.051,0.016-0.077l0.013-0.057c0.018-0.083,0.037-0.165,0.056-0.248c0.007-0.032,0.014-0.064,0.021-0.096
	l0.001-0.004l0.009-0.037c0.024-0.102,0.049-0.203,0.075-0.304l0.015-0.06l0.002-0.009c0.033-0.127,0.066-0.253,0.101-0.379
	l0.002-0.009l0.018-0.064c0.027-0.098,0.056-0.196,0.084-0.294l0.009-0.033l0.001-0.004l0.008-0.025
	c0.01-0.032,0.02-0.064,0.03-0.097c0.017-0.057,0.034-0.113,0.052-0.17c0.02-0.064,0.041-0.128,0.062-0.191
	c0.021-0.065,0.042-0.13,0.064-0.194c0.025-0.075,0.051-0.15,0.077-0.225c0.011-0.032,0.023-0.063,0.034-0.095
	c0.019-0.054,0.038-0.107,0.057-0.161l0.018-0.048c0.025-0.067,0.05-0.134,0.075-0.201c0.016-0.042,0.031-0.084,0.047-0.125
	l0.001-0.003l0.01-0.026c0.028-0.073,0.057-0.145,0.086-0.218c0.017-0.042,0.033-0.085,0.05-0.127l0.001-0.003
	c0.018-0.043,0.036-0.085,0.054-0.128c0.028-0.068,0.056-0.135,0.085-0.202l0.015-0.036l0.001-0.003
	c0.019-0.044,0.038-0.087,0.058-0.13c0.025-0.057,0.05-0.114,0.076-0.17l0.027-0.062l0.001-0.003l0.009-0.02
	c0.014-0.031,0.029-0.062,0.043-0.093c0.025-0.054,0.05-0.108,0.075-0.161C7.377,9.899,7.39,9.87,7.404,9.842
	c0.012-0.025,0.025-0.05,0.037-0.075c0.03-0.062,0.061-0.124,0.092-0.186c0.015-0.031,0.03-0.063,0.046-0.094l0.03-0.059
	c0.027-0.053,0.054-0.106,0.082-0.158l0.011-0.02c0.019-0.037,0.038-0.074,0.057-0.11l0.001-0.002L7.779,9.1
	C7.8,9.06,7.821,9.022,7.842,8.983l0.024-0.045C7.893,8.888,7.92,8.839,7.947,8.79s0.055-0.097,0.082-0.145
	C8.06,8.59,8.092,8.535,8.123,8.48l0.016-0.028L8.141,8.45c0.028-0.049,0.058-0.097,0.086-0.145c0.025-0.043,0.05-0.086,0.076-0.128
	l0.036-0.06L8.34,8.114c0.025-0.041,0.05-0.081,0.076-0.121c0.026-0.042,0.052-0.083,0.078-0.125
	c0.017-0.027,0.034-0.055,0.051-0.082l0.001-0.002c0.023-0.036,0.046-0.071,0.069-0.106L8.679,7.58
	C8.705,7.54,8.731,7.5,8.757,7.461c0.018-0.028,0.037-0.055,0.056-0.082l0.06-0.088c0.034-0.05,0.067-0.1,0.102-0.15l0.039-0.054
	L9.05,7.035l0.047-0.067c0.033-0.047,0.066-0.094,0.1-0.141l0.001-0.002C9.269,6.729,9.34,6.634,9.412,6.54l0.016-0.021l0.001-0.002
	l0.004-0.006c0.044-0.058,0.089-0.115,0.133-0.172l0.055-0.071l0.042-0.054c0.039-0.05,0.08-0.099,0.12-0.148l0.055-0.068
	C9.859,5.971,9.88,5.945,9.902,5.919l0.001-0.002C9.932,5.882,9.961,5.848,9.99,5.813l0.076-0.09
	c0.027-0.032,0.054-0.064,0.081-0.096l0.001-0.001c0.023-0.027,0.047-0.053,0.07-0.08c0.023-0.026,0.046-0.052,0.069-0.078
	c0.037-0.042,0.073-0.084,0.111-0.126l0.001-0.001c0.017-0.018,0.034-0.036,0.05-0.055l0.056-0.061
	c0.05-0.054,0.099-0.108,0.149-0.162l0.001-0.001l0.027-0.029c0.077-0.082,0.154-0.163,0.232-0.243l0.001-0.001
	c0.088-0.089,0.176-0.178,0.265-0.265l0.001-0.001c0.058-0.056,0.116-0.111,0.174-0.167l0.014-0.014l0.005-0.005
	c0.026-0.024,0.051-0.049,0.076-0.073c0.043-0.04,0.087-0.08,0.13-0.119l0.002-0.001l0.042-0.039
	c0.034-0.031,0.068-0.063,0.102-0.093l0.001-0.001c0.033-0.029,0.066-0.058,0.099-0.087l0.047-0.041
	c0.045-0.039,0.089-0.079,0.134-0.117l0.001-0.001c0.024-0.02,0.048-0.04,0.072-0.06l0.034-0.028c0.06-0.05,0.119-0.101,0.179-0.15
	l0.001-0.001c0.096-0.078,0.192-0.156,0.289-0.232c0.097-0.076,0.196-0.152,0.295-0.226l0.001-0.001
	c0.073-0.055,0.147-0.108,0.22-0.161c0.026-0.019,0.052-0.038,0.078-0.057l0.001-0.001c0.054-0.039,0.109-0.076,0.164-0.114
	l0.029-0.02c0.036-0.025,0.073-0.051,0.109-0.076c0.041-0.028,0.083-0.055,0.124-0.082l0.043-0.028
	c0.047-0.031,0.093-0.063,0.141-0.093l0.001-0.001c0.032-0.021,0.064-0.04,0.097-0.061l0.005-0.004l0.013-0.008
	c0.065-0.041,0.13-0.083,0.196-0.123l0.001-0.001c0.104-0.064,0.209-0.127,0.315-0.189l0.001-0.001
	c0.106-0.062,0.212-0.122,0.319-0.181c0.025-0.014,0.05-0.026,0.074-0.04c0.042-0.023,0.084-0.045,0.126-0.067l0.075-0.04
	c0.08-0.042,0.16-0.083,0.24-0.124l0.028-0.014c0.035-0.018,0.071-0.036,0.106-0.054l0.001,0c0.053-0.026,0.106-0.051,0.159-0.076
	l0.008-0.004l0.008-0.004c0.08-0.038,0.161-0.076,0.242-0.112l0.087-0.039c0.035-0.016,0.07-0.032,0.105-0.047l0.056-0.025l0.001,0
	c0.026-0.011,0.052-0.022,0.078-0.033c0.086-0.037,0.172-0.073,0.259-0.109l0.001,0c0.113-0.046,0.227-0.09,0.341-0.133l0.001,0
	c0.114-0.043,0.229-0.085,0.344-0.125l0,0c0.048-0.017,0.097-0.032,0.145-0.049c0.212-0.071,0.425-0.138,0.64-0.2
	c0.207-0.059,0.415-0.115,0.624-0.166c0.239-0.057,0.48-0.109,0.722-0.154C20.091,0.084,20.988,0,21.887,0H16.53
	C7.401,0,0,8.508,0,19.004s7.401,19.004,16.53,19.004L16.532,38.01z"/>
<path id="path877" class="st1" d="M21.889,38.01c9.129,0,16.53-8.508,16.53-19.004S31.019,0.003,21.889,0.003
	c-0.899,0-1.795,0.084-2.679,0.25c-0.243,0.045-0.483,0.097-0.722,0.154c-0.21,0.05-0.418,0.106-0.624,0.166
	c-0.215,0.062-0.429,0.129-0.64,0.2c-0.048,0.016-0.097,0.032-0.145,0.049l0,0c-0.115,0.04-0.23,0.082-0.344,0.125l-0.001,0
	C16.62,0.99,16.506,1.034,16.393,1.08l-0.001,0c-0.113,0.046-0.225,0.093-0.337,0.141l-0.001,0l-0.056,0.025
	c-0.205,0.09-0.407,0.184-0.608,0.282l-0.001,0c-0.194,0.096-0.386,0.196-0.576,0.3c-0.025,0.013-0.05,0.026-0.074,0.04
	c-0.107,0.059-0.213,0.119-0.319,0.181l-0.001,0.001c-0.106,0.062-0.211,0.124-0.315,0.189L14.103,2.24
	c-0.104,0.064-0.208,0.129-0.311,0.196l-0.001,0.001c-0.055,0.036-0.11,0.073-0.165,0.109c-0.048,0.032-0.095,0.062-0.143,0.095
	c-0.101,0.069-0.202,0.139-0.302,0.211L13.18,2.852c-0.1,0.071-0.199,0.144-0.298,0.218l-0.001,0.001
	c-0.099,0.074-0.197,0.149-0.295,0.226c-0.097,0.076-0.193,0.153-0.289,0.232l-0.001,0.001c-0.096,0.078-0.19,0.158-0.284,0.239
	l-0.001,0.001c-0.094,0.081-0.187,0.162-0.28,0.245l-0.001,0.001c-0.049,0.044-0.097,0.089-0.146,0.134
	c-0.043,0.04-0.087,0.079-0.13,0.119c-0.091,0.085-0.181,0.171-0.27,0.258l-0.001,0.001c-0.089,0.087-0.178,0.175-0.265,0.265
	l-0.001,0.001c-0.088,0.089-0.174,0.18-0.26,0.271l-0.001,0.001c-0.086,0.091-0.171,0.184-0.255,0.277L10.4,5.345
	c-0.084,0.093-0.167,0.188-0.25,0.283L10.15,5.63C10.067,5.726,9.986,5.822,9.905,5.92L9.904,5.921
	c-0.03,0.036-0.059,0.073-0.089,0.11c-0.05,0.062-0.1,0.123-0.15,0.185c-0.078,0.098-0.154,0.197-0.23,0.297L9.431,6.519L9.43,6.521
	C9.353,6.622,9.277,6.725,9.202,6.828L9.2,6.83C9.167,6.876,9.134,6.924,9.1,6.97C9.059,7.028,9.018,7.085,8.977,7.144
	c-0.045,0.064-0.089,0.13-0.133,0.195C8.816,7.38,8.787,7.421,8.759,7.463C8.688,7.57,8.618,7.678,8.549,7.786L8.547,7.788
	C8.478,7.897,8.41,8.006,8.343,8.117L8.342,8.119C8.274,8.229,8.208,8.34,8.143,8.452L8.142,8.455
	C8.077,8.567,8.013,8.679,7.949,8.793C7.914,8.857,7.88,8.921,7.845,8.985C7.817,9.036,7.789,9.087,7.762,9.139L7.761,9.141
	c-0.019,0.037-0.038,0.074-0.057,0.11C7.663,9.33,7.621,9.409,7.581,9.489C7.522,9.607,7.463,9.725,7.406,9.844
	c-0.054,0.113-0.107,0.226-0.159,0.34l-0.009,0.02l-0.001,0.003c-0.055,0.12-0.108,0.241-0.161,0.362l-0.001,0.003
	c-0.052,0.121-0.104,0.243-0.154,0.366L6.92,10.941c-0.05,0.123-0.099,0.246-0.147,0.371l-0.001,0.003
	c-0.048,0.124-0.095,0.249-0.14,0.375c-0.135,0.372-0.26,0.75-0.375,1.133L6.25,12.847l-0.001,0.004
	c-0.039,0.129-0.076,0.26-0.112,0.39c-0.036,0.132-0.072,0.264-0.106,0.398c-0.029,0.113-0.057,0.227-0.084,0.341l-0.015,0.06
	l-0.001,0.004c-0.031,0.133-0.061,0.267-0.09,0.401c-0.029,0.135-0.057,0.272-0.083,0.408c-0.027,0.137-0.052,0.274-0.076,0.412
	c-0.016,0.093-0.031,0.187-0.046,0.281c-0.007,0.045-0.015,0.089-0.022,0.134l-0.001,0.004c-0.021,0.137-0.041,0.275-0.059,0.414
	c-0.019,0.14-0.036,0.28-0.052,0.421c-0.015,0.128-0.028,0.257-0.04,0.387l-0.004,0.037l-0.001,0.005
	c-0.013,0.14-0.025,0.281-0.035,0.422c-0.011,0.143-0.02,0.286-0.028,0.429c-0.016,0.287-0.026,0.576-0.03,0.866
	c-0.002,0.114-0.004,0.229-0.004,0.343c0,0.113,0.002,0.226,0.004,0.338c0.002,0.108,0.006,0.216,0.011,0.324
	c0.014,0.316,0.038,0.629,0.072,0.938l0.002,0.021l0.001,0.005c0.011,0.104,0.024,0.207,0.038,0.311
	c0.028,0.209,0.059,0.417,0.096,0.623c0.142,0.809,0.354,1.604,0.633,2.377c0.103,0.284,0.215,0.563,0.335,0.837
	c0.08,0.182,0.164,0.362,0.251,0.539l0.001,0.003c0.043,0.088,0.087,0.175,0.132,0.261c0.045,0.087,0.092,0.174,0.139,0.26
	C7.12,25.93,7.168,26.015,7.217,26.1l0.001,0.002c0.048,0.084,0.098,0.167,0.148,0.249c0.05,0.083,0.102,0.166,0.154,0.247
	l0.001,0.002c0.052,0.081,0.104,0.161,0.157,0.241c0.054,0.08,0.108,0.16,0.164,0.238c0.111,0.157,0.225,0.312,0.342,0.463
	c0.217,0.28,0.444,0.549,0.681,0.806c0.019,0.02,0.037,0.041,0.056,0.061l0.001,0.001l0.039,0.041
	c0.051,0.054,0.103,0.108,0.155,0.162c0.066,0.067,0.132,0.133,0.199,0.199l0.001,0.001c0.134,0.13,0.27,0.257,0.41,0.38
	c0.07,0.062,0.14,0.123,0.211,0.182l0.001,0.001c0.071,0.06,0.142,0.118,0.214,0.176l0.001,0.001
	c0.144,0.116,0.291,0.227,0.44,0.335l0.001,0.001c0.149,0.108,0.301,0.212,0.455,0.311l0.001,0.001
	c0.077,0.05,0.154,0.099,0.232,0.146c0.235,0.144,0.474,0.278,0.719,0.403c0.244,0.125,0.493,0.24,0.747,0.345l0.001,0
	c0.084,0.035,0.169,0.069,0.254,0.101l0.001,0l0.054,0.02c0.142,0.053,0.285,0.104,0.429,0.151l0.034,0.011l0.001,0
	c0.021,0.007,0.042,0.013,0.063,0.019c0.066,0.021,0.133,0.042,0.2,0.061c0.025,0.007,0.049,0.013,0.074,0.02
	c0.152,0.043,0.304,0.083,0.458,0.119h0c0.089,0.021,0.179,0.04,0.269,0.058h0c0.025,0.005,0.051,0.009,0.076,0.014
	c0.143,0.028,0.287,0.052,0.432,0.074l0.038,0.006h0c0.092,0.013,0.184,0.025,0.276,0.036c0.185,0.021,0.371,0.037,0.558,0.048
	h-0.001c0.094,0.005,0.188,0.009,0.282,0.012h0c0.094,0.003,0.189,0.004,0.284,0.004c0.906,0,1.807-0.125,2.679-0.372
	c-4.877-1.38-8.494-6.44-8.494-12.472s3.617-11.093,8.494-12.472c2.136-0.605,4.414-0.47,6.464,0.384h0
	c0.084,0.035,0.168,0.071,0.252,0.108h0c0.671,0.3,1.308,0.668,1.903,1.1h0c0.299,0.216,0.589,0.448,0.868,0.696h0
	c0.07,0.062,0.139,0.124,0.207,0.188h0c1.123,1.053,2.045,2.303,2.718,3.688c0.087,0.177,0.171,0.357,0.251,0.54
	c0.16,0.365,0.305,0.739,0.435,1.124c0.065,0.192,0.126,0.386,0.183,0.582c0.057,0.196,0.11,0.395,0.159,0.595
	c0.049,0.2,0.093,0.403,0.134,0.607c0.061,0.306,0.112,0.616,0.153,0.931c0.027,0.209,0.05,0.42,0.069,0.633
	c0.009,0.106,0.017,0.213,0.024,0.32c0.007,0.107,0.013,0.214,0.018,0.322c0.005,0.108,0.008,0.216,0.011,0.324
	c0.002,0.11,0.004,0.221,0.004,0.331c0,0.111-0.001,0.221-0.004,0.331c-0.002,0.136-0.005,0.271-0.01,0.407
	c-0.002,0.055-0.005,0.111-0.007,0.166c-0.003,0.081-0.007,0.162-0.011,0.244l-0.01,0.169c-0.005,0.082-0.01,0.164-0.016,0.246
	c-0.004,0.054-0.008,0.108-0.012,0.162c-0.007,0.084-0.014,0.167-0.021,0.251c-0.005,0.052-0.01,0.104-0.015,0.155
	c-0.008,0.082-0.016,0.163-0.025,0.245c-0.006,0.056-0.012,0.112-0.019,0.168c-0.01,0.082-0.02,0.164-0.03,0.246
	c-0.006,0.049-0.012,0.098-0.019,0.146c-0.012,0.089-0.025,0.177-0.038,0.265c-0.007,0.047-0.013,0.094-0.021,0.141
	c-0.02,0.13-0.041,0.26-0.064,0.389l-0.008,0.047c-0.02,0.113-0.04,0.225-0.062,0.337c-0.009,0.049-0.019,0.097-0.029,0.145
	c-0.017,0.084-0.034,0.167-0.051,0.251c-0.01,0.047-0.02,0.094-0.031,0.141c-0.017,0.08-0.035,0.16-0.054,0.239
	c-0.013,0.056-0.026,0.111-0.039,0.166c-0.017,0.069-0.033,0.138-0.051,0.207c-0.015,0.059-0.03,0.118-0.045,0.177
	c-0.018,0.07-0.036,0.139-0.055,0.208c-0.015,0.055-0.03,0.11-0.045,0.165c-0.021,0.074-0.042,0.147-0.063,0.22
	c-0.015,0.051-0.029,0.102-0.044,0.152c-0.022,0.072-0.044,0.143-0.066,0.215c-0.017,0.054-0.033,0.109-0.051,0.163
	c-0.037,0.116-0.075,0.231-0.114,0.346c-0.019,0.055-0.038,0.11-0.058,0.165c-0.022,0.064-0.045,0.128-0.068,0.192
	c-0.022,0.06-0.044,0.119-0.066,0.179c-0.023,0.061-0.045,0.122-0.068,0.183c-0.021,0.055-0.042,0.109-0.063,0.163
	c-0.026,0.066-0.052,0.132-0.078,0.197c-0.022,0.055-0.044,0.109-0.067,0.163c-0.024,0.059-0.049,0.118-0.074,0.177
	c-0.025,0.059-0.05,0.118-0.076,0.176c-0.026,0.059-0.052,0.118-0.078,0.177c-0.025,0.056-0.05,0.112-0.075,0.167
	c-0.026,0.056-0.052,0.112-0.079,0.169c-0.027,0.058-0.054,0.116-0.082,0.173c-0.027,0.057-0.055,0.113-0.083,0.169
	c-0.027,0.054-0.053,0.109-0.08,0.162c-0.017,0.033-0.034,0.065-0.051,0.098c-0.038,0.074-0.076,0.148-0.114,0.222
	c-0.032,0.06-0.064,0.12-0.097,0.18c-0.025,0.046-0.049,0.092-0.074,0.137c-0.035,0.064-0.071,0.127-0.106,0.19
	c-0.025,0.044-0.05,0.089-0.076,0.133c-0.037,0.065-0.075,0.13-0.114,0.194c-0.023,0.039-0.046,0.077-0.069,0.116
	c-0.037,0.061-0.074,0.122-0.111,0.183c-0.029,0.047-0.058,0.094-0.088,0.141c-0.037,0.058-0.073,0.116-0.11,0.174
	c-0.024,0.038-0.049,0.076-0.074,0.113c-0.043,0.066-0.086,0.131-0.129,0.196c-0.02,0.03-0.041,0.06-0.062,0.09
	c-0.047,0.07-0.095,0.14-0.143,0.209l-0.008,0.011c-0.127,0.181-0.257,0.36-0.389,0.535l-0.005,0.006
	c-0.05,0.066-0.101,0.132-0.151,0.197c-0.023,0.029-0.045,0.059-0.068,0.088c-0.052,0.066-0.105,0.132-0.158,0.197l-0.06,0.075
	c-0.055,0.067-0.11,0.133-0.165,0.199l-0.056,0.067c-0.056,0.066-0.113,0.132-0.17,0.198l-0.063,0.072
	c-0.055,0.062-0.111,0.125-0.167,0.186l-0.063,0.069c-0.061,0.066-0.122,0.132-0.183,0.197l-0.005,0.006
	c-0.303,0.32-0.616,0.627-0.94,0.92l-0.01,0.009c-0.072,0.065-0.144,0.129-0.216,0.192l-0.047,0.041
	c-0.066,0.058-0.133,0.115-0.2,0.171l-0.063,0.053c-0.069,0.058-0.138,0.115-0.208,0.171L25.981,34.6
	c-0.075,0.06-0.15,0.119-0.225,0.178l-0.023,0.018c-0.081,0.063-0.163,0.124-0.245,0.185c-0.345,0.256-0.698,0.497-1.06,0.724
	l-0.029,0.019c-0.078,0.049-0.156,0.096-0.235,0.143l-0.059,0.035c-0.077,0.046-0.155,0.091-0.233,0.135l-0.05,0.028
	c-0.084,0.047-0.168,0.094-0.252,0.14l-0.024,0.013c-0.089,0.048-0.179,0.095-0.269,0.142l-0.014,0.007
	c-0.093,0.047-0.186,0.094-0.279,0.14c-0.384,0.187-0.775,0.358-1.174,0.512l-0.016,0.007c-0.837,0.324-1.701,0.57-2.583,0.736
	c-0.883,0.166-1.78,0.249-2.679,0.25L21.889,38.01z"/>
</svg>
